<svg width="82" height="32" viewBox="0 0 82 32" fill="none" xmlns="http://www.w3.org/2000/svg">
<path d="M8.00016 19.3107L11.4201 21.3359L10.5125 17.5189L13.534 14.9506L9.55518 14.614L8.00016 11.0195L6.44515 14.614L2.46631 14.9506L5.48226 17.5189L4.58024 21.3359L8.00016 19.3107Z" fill="#FB8200"/>
<path d="M22.0002 19.3107L25.4201 21.3359L24.5125 17.5189L27.534 14.9506L23.5552 14.614L22.0002 11.0195L20.4451 14.614L16.4663 14.9506L19.4823 17.5189L18.5802 21.3359L22.0002 19.3107Z" fill="#FB8200"/>
<path d="M36.0002 19.3107L39.4201 21.3359L38.5125 17.5189L41.534 14.9506L37.5552 14.614L36.0002 11.0195L34.4451 14.614L30.4663 14.9506L33.4823 17.5189L32.5802 21.3359L36.0002 19.3107Z" fill="#FB8200"/>
<path d="M50.0002 19.3107L53.4201 21.3359L52.5125 17.5189L55.534 14.9506L51.5552 14.614L50.0002 11.0195L48.4451 14.614L44.4663 14.9506L47.4823 17.5189L46.5802 21.3359L50.0002 19.3107Z" fill="#FB8200"/>
<path d="M64.0002 18.2717V12.8544L64.9465 15.2019L67.3703 15.4174L65.533 17.1009L66.0809 19.594L64.0002 18.2717ZM69.534 14.6834L65.5552 14.3281L64.0002 10.4661L62.4451 14.3281L58.4663 14.6834L61.4823 17.4387L60.5802 21.5338L64.0002 19.361L67.4201 21.5338L66.5125 17.4387L69.534 14.6834Z" fill="#FB8200"/>
</svg>
